HIERARCHY
ROOT Hips
{
  OFFSET 49.015 102.023 -16.8275
  CHANNELS 6 Xposition Yposition Zposition Zrotation Xrotation Yrotation
  JOINT Chest
  {
    OFFSET 1.23234e-007 14.8421 1.27321e-009
    CHANNELS 6 Xposition Yposition Zposition Zrotation Xrotation Yrotation
    JOINT LeftCollar
    {
      OFFSET 6.64893 27.3161 3.27471
      CHANNELS 6 Xposition Yposition Zposition Zrotation Xrotation Yrotation
      JOINT LeftUpArm
      {
        OFFSET 10.8584 2.41798 -0.945791
        CHANNELS 6 Xposition Yposition Zposition Zrotation Xrotation Yrotation
        JOINT LeftLowArm
        {
          OFFSET 3.77631 -24.5904 -1.70468
          CHANNELS 6 Xposition Yposition Zposition Zrotation Xrotation Yrotation
          JOINT LeftHand
          {
            OFFSET 1.01026 -21.1231 1.74131
            CHANNELS 6 Xposition Yposition Zposition Zrotation Xrotation Yrotation
            End Site
            {
              OFFSET 1.17583e-006 -9.81266 -2.89439e-008
            }
          }
        }
      }
    }
    JOINT RightCollar
    {
      OFFSET -6.11406 27.2248 4.23427
      CHANNELS 6 Xposition Yposition Zposition Zrotation Xrotation Yrotation
      JOINT RightUpArm
      {
        OFFSET -10.4566 2.3285 -0.910794
        CHANNELS 6 Xposition Yposition Zposition Zrotation Xrotation Yrotation
        JOINT RightLowArm
        {
          OFFSET -3.86856 -25.191 -1.74633
          CHANNELS 6 Xposition Yposition Zposition Zrotation Xrotation Yrotation
          JOINT RightHand
          {
            OFFSET -1.04759 -20.6242 1.75213
            CHANNELS 6 Xposition Yposition Zposition Zrotation Xrotation Yrotation
            End Site
            {
              OFFSET -2.03487e-006 -9.50367 -4.31372e-006
            }
          }
        }
      }
    }
    JOINT Neck
    {
      OFFSET 0.51659 29.8236 6.51843
      CHANNELS 6 Xposition Yposition Zposition Zrotation Xrotation Yrotation
      JOINT Head
      {
        OFFSET 1.16803e-007 7.47049 6.44171e-007
        CHANNELS 6 Xposition Yposition Zposition Zrotation Xrotation Yrotation
        End Site
        {
          OFFSET -4.32676e-008 16.2908 2.16786e-007
        }
      }
    }
  }
  JOINT LeftUpLeg
  {
    OFFSET 9 -3.38008e-006 -5.23001e-009
    CHANNELS 6 Xposition Yposition Zposition Zrotation Xrotation Yrotation
    JOINT LeftLowLeg
    {
      OFFSET -0.575 -51.431 3.90177
      CHANNELS 6 Xposition Yposition Zposition Zrotation Xrotation Yrotation
      JOINT LeftFoot
      {
        OFFSET 2.13082e-007 -43.5882 -3.90177
        CHANNELS 6 Xposition Yposition Zposition Zrotation Xrotation Yrotation
        End Site
        {
          OFFSET 7.44796e-007 -6.93413 15.0046
        }
      }
    }
  }
  JOINT RightUpLeg
  {
    OFFSET -9 6.86154e-007 -3.19547e-009
    CHANNELS 6 Xposition Yposition Zposition Zrotation Xrotation Yrotation
    JOINT RightLowLeg
    {
      OFFSET 0.575 -51.4311 3.90177
      CHANNELS 6 Xposition Yposition Zposition Zrotation Xrotation Yrotation
      JOINT RightFoot
      {
        OFFSET -7.46079e-007 -43.5882 -3.90177
        CHANNELS 6 Xposition Yposition Zposition Zrotation Xrotation Yrotation
        End Site
        {
          OFFSET 4.66716e-007 -6.93413 15.0046
        }
      }
    }
  }
}
MOTION
Frames:	7
Frame Time:	0.0333333
61.5617 96.27 90.1417 -2.61387 -0.213176 -9.61792 1.23234e-007 14.8421 1.2722e-009 3.21997 3.07923 4.6615 6.64893 27.3161 3.27471 -2.94784 5.93879 -4.20517 10.8584 2.41798 -0.945791 21.074 -9.40667 -0.28282 3.77631 -24.5904 -1.70468 7.56924 -2.05378 -9.12268 1.01026 -21.1231 1.74131 7.37763 -6.35061 0.578348 -6.11406 27.2248 4.23427 -1.96452 7.32629 3.42623 -10.4566 2.3285 -0.910794 -19.9337 -3.35546 16.5784 -3.86856 -25.191 -1.74633 -15.1982 0.350539 29.6759 -1.04759 -20.6242 1.75213 -8.91781 -0.609655 -0.927797 0.51659 29.8236 6.51843 0.803888 8.19113 -1.48655 1.16803e-007 7.47049 6.44171e-007 1.67262 -3.92181 -0.770131 9 -3.38008e-006 -5.23002e-009 14.256 -11.8602 17.2973 -0.575 -51.431 3.90177 -6.76406 35.7507 -9.23082 2.13082e-007 -43.5882 -3.90177 -1.22487 -0.667718 0.110461 -9 6.86154e-007 -3.19483e-009 -6.9262 -17.3154 -10.8076 0.575 -51.4311 3.90177 -3.81651 26.5991 7.77105 -7.46079e-007 -43.5882 -3.90177 0.31994 3.79169 -0.0941723 
61.8504 96.4528 88.9342 -2.51386 -0.156562 -9.80084 1.23234e-007 14.8421 1.27216e-009 2.72303 3.80916 4.65203 6.64893 27.3161 3.27471 -2.94784 5.93879 -4.20517 10.8584 2.41798 -0.945791 21.3244 -8.98659 -0.0621982 3.77631 -24.5904 -1.70468 6.95618 -4.33309 -9.15489 1.01026 -21.1231 1.74131 7.04316 -6.72575 0.517335 -6.11406 27.2248 4.23427 -1.96452 7.32629 3.42623 -10.4566 2.3285 -0.910794 -19.3378 -2.67777 16.0556 -3.86856 -25.191 -1.74633 -15.3237 0.205018 28.9473 -1.04759 -20.6242 1.75213 -9.91969 -1.04375 -1.06181 0.51659 29.8236 6.51843 1.03624 8.65508 -1.63449 1.16803e-007 7.47049 6.44171e-007 1.71751 -3.77474 -0.822595 9 -3.38008e-006 -5.23e-009 14.0321 -12.5105 17.0811 -0.575 -51.431 3.90177 -6.74814 35.2887 -8.74844 2.13082e-007 -43.5882 -3.90177 -1.83956 -0.328527 0.17562 -9 6.86154e-007 -3.19481e-009 -7.06452 -17.7691 -10.7954 0.575 -51.4311 3.90177 -3.55102 25.645 8.39853 -7.46079e-007 -43.5882 -3.90177 0.833371 5.09061 -0.185904 
62.1827 96.7406 87.4671 -2.54016 0.10339 -10.267 1.23234e-007 14.8421 1.27213e-009 2.35287 4.52023 4.79737 6.64893 27.3161 3.27471 -2.94784 5.93879 -4.20517 10.8584 2.41798 -0.945791 21.7765 -7.58433 0.401243 3.77631 -24.5904 -1.70468 5.52905 -8.15546 -9.8548 1.01026 -21.1231 1.74131 6.56183 -7.18356 0.427673 -6.11406 27.2248 4.23427 -1.96452 7.32629 3.42623 -10.4566 2.3285 -0.910794 -18.7719 -2.08082 15.6259 -3.86856 -25.191 -1.74633 -15.5462 -0.0499532 29.2933 -1.04759 -20.6242 1.75213 -8.48631 -1.28836 -0.877186 0.51659 29.8236 6.51843 1.30271 9.8694 -1.75064 1.16803e-007 7.47049 6.44171e-007 1.40236 -4.20706 -0.755638 9 -3.38008e-006 -5.22999e-009 13.8871 -13.2972 16.7687 -0.575 -51.431 3.90177 -6.62491 34.4619 -7.98272 2.13082e-007 -43.5882 -3.90177 -2.70676 0.0879725 0.270392 -9 6.86154e-007 -3.19479e-009 -7.09298 -18.141 -10.8565 0.575 -51.4311 3.90177 -2.93286 23.6711 8.55384 -7.46079e-007 -43.5882 -3.90177 1.67115 7.21546 -0.358863 
62.5946 97.1545 85.7683 -2.56096 0.499033 -10.927 1.23234e-007 14.8421 1.2721e-009 1.99463 5.46866 4.90165 6.64893 27.3161 3.27471 -2.94784 5.93879 -4.20517 10.8584 2.41798 -0.945791 21.7178 -6.75685 0.48389 3.77631 -24.5904 -1.70468 4.99288 -9.60707 -9.95299 1.01026 -21.1231 1.74131 6.9362 -7.32229 0.496603 -6.11406 27.2248 4.23427 -1.96452 7.32629 3.42623 -10.4566 2.3285 -0.910794 -18.3734 -1.61657 15.2963 -3.86856 -25.191 -1.74633 -15.6154 -0.218868 28.9161 -1.04759 -20.6242 1.75213 -8.86689 -1.66974 -0.931227 0.51659 29.8236 6.51843 1.27469 10.8321 -1.76408 1.16803e-007 7.47049 6.44171e-007 1.39231 -4.25171 -0.759451 9 -3.38008e-006 -5.22997e-009 13.6066 -14.0332 16.2357 -0.575 -51.431 3.90177 -6.34361 33.067 -6.99657 2.13082e-007 -43.5882 -3.90177 -3.602 0.505725 0.376577 -9 6.86154e-007 -3.19478e-009 -7.1119 -18.3994 -10.9176 0.575 -51.4311 3.90177 -2.10781 20.8846 9.03479 -7.46079e-007 -43.5882 -3.90177 2.75126 9.89365 -0.625347 
62.9785 97.753 83.8685 -2.83265 1.24664 -12.1368 1.23234e-007 14.8421 1.27206e-009 1.93217 6.5764 5.34927 6.64893 27.3161 3.27471 -2.94784 5.93879 -4.20517 10.8584 2.41798 -0.945791 20.9563 -6.4422 0.351843 3.77631 -24.5904 -1.70468 5.59917 -8.54092 -9.31495 1.01026 -21.1231 1.74131 6.81053 -7.33549 0.473117 -6.11406 27.2248 4.23427 -1.96452 7.32629 3.42623 -10.4566 2.3285 -0.910794 -18.1911 -1.2008 15.1001 -3.86856 -25.191 -1.74633 -15.6842 -0.442652 28.917 -1.04759 -20.6242 1.75213 -9.19662 -1.68691 -0.976653 0.51659 29.8236 6.51843 1.4728 11.1027 -1.78538 1.16803e-007 7.47049 6.44171e-007 1.04696 -3.94212 -0.646524 9 -3.38008e-006 -5.22997e-009 13.7564 -14.7885 15.8381 -0.575 -51.431 3.90177 -6.02553 31.1882 -6.01927 2.13082e-007 -43.5882 -3.90177 -5.37257 1.46054 0.608472 -9 6.86154e-007 -3.19476e-009 -6.67732 -18.3691 -10.7431 0.575 -51.4311 3.90177 -0.867379 16.467 9.6688 -7.46079e-007 -43.5882 -3.90177 4.13574 13.452 -1.04642 
63.2977 98.4238 81.8344 -3.17287 2.49711 -13.8029 1.23234e-007 14.8421 1.27203e-009 2.27578 7.08826 5.82004 6.64893 27.3161 3.27471 -2.94784 5.93879 -4.20517 10.8584 2.41798 -0.945791 19.2273 -6.46778 0.0194598 3.77631 -24.5904 -1.70468 7.64894 -4.51862 -7.44337 1.01026 -21.1231 1.74131 7.13219 -7.52787 0.533147 -6.11406 27.2248 4.23427 -1.96452 7.32629 3.42623 -10.4566 2.3285 -0.910794 -18.3351 -0.939674 15.106 -3.86856 -25.191 -1.74633 -15.6662 -0.50864 28.9239 -1.04759 -20.6242 1.75213 -9.57354 -1.94769 -1.03214 0.51659 29.8236 6.51843 0.791165 11.3452 -1.47849 1.16803e-007 7.47049 6.44171e-007 1.42453 -3.50477 -0.687699 9 -3.38008e-006 -5.23005e-009 14.4384 -15.7023 15.8786 -0.575 -51.431 3.90177 -5.91443 28.8828 -4.74448 2.13082e-007 -43.5882 -3.90177 -7.40342 2.62494 0.92001 -9 6.86154e-007 -3.19475e-009 -5.88387 -17.9343 -10.438 0.575 -51.4311 3.90177 0.868655 10.0227 10.5314 -7.46079e-007 -43.5882 -3.90177 5.9549 17.9363 -1.72028 
63.4599 99.0997 79.8558 -3.63904 3.92306 -15.5709 1.23234e-007 14.8421 1.272e-009 2.80233 7.13129 6.39349 6.64893 27.3161 3.27471 -2.94784 5.93879 -4.20517 10.8584 2.41798 -0.945791 17.7998 -5.22885 -0.00593103 3.77631 -24.5904 -1.70468 8.74743 -2.08086 -6.78217 1.01026 -21.1231 1.74131 7.28844 -7.47043 0.562795 -6.11406 27.2248 4.23427 -1.96452 7.32629 3.42623 -10.4566 2.3285 -0.910794 -18.5438 -0.422443 14.8837 -3.86856 -25.191 -1.74633 -15.5783 -0.420223 28.9327 -1.04759 -20.6242 1.75213 -9.75597 -2.01726 -1.05884 0.51659 29.8236 6.51843 0.149848 11.694 -1.03509 1.16803e-007 7.47049 6.44171e-007 1.99387 -3.48142 -0.600925 9 -3.38008e-006 -5.23013e-009 15.5907 -16.6211 16.2114 -0.575 -51.431 3.90177 -5.81517 26.7451 -4.09129 2.13082e-007 -43.5882 -3.90177 -9.37983 3.87995 1.2646 -9 6.86154e-007 -3.19473e-009 -4.7169 -17.5435 -9.67854 0.575 -51.4311 3.90177 2.43881 4.01772 12.2438 -7.46079e-007 -43.5882 -3.90177 8.07092 22.1091 -2.58244 
